<?xml version="1.0" standalone="no"?>
<!DOCTYPE svg PUBLIC "-//W3C//DTD SVG 20010904//EN"
 "http://www.w3.org/TR/2001/REC-SVG-20010904/DTD/svg10.dtd">
<svg version="1.0" xmlns="http://www.w3.org/2000/svg"
 width="127.000000pt" height="127.000000pt" viewBox="0 0 127.000000 127.000000"
 preserveAspectRatio="xMidYMid meet">
<metadata>
Created by potrace 1.14, written by Peter Selinger 2001-2017
</metadata>
<g transform="translate(0.000000,127.000000) scale(0.100000,-0.100000)"
fill="#000000" stroke="none">
<path d="M584 1195 c-4 -10 -21 -15 -48 -16 -22 -1 -32 -4 -21 -6 11 -3 23
-10 27 -17 6 -8 8 -7 8 2 0 6 7 12 15 12 11 0 14 -13 13 -56 -2 -59 9 -74 47
-73 16 1 15 2 -5 8 -23 6 -25 12 -25 61 l0 55 37 1 c21 0 41 4 45 8 5 4 3 7
-2 6 -6 -1 -27 -2 -49 -1 -29 1 -37 4 -32 16 3 8 3 15 0 15 -2 0 -7 -7 -10
-15z"/>
<path d="M688 1153 c7 -3 16 -2 19 1 4 3 -2 6 -13 5 -11 0 -14 -3 -6 -6z"/>
<path d="M732 1128 c2 -7 -3 -12 -10 -10 -8 1 -11 -2 -7 -8 3 -5 2 -10 -4 -10
-5 0 -8 -10 -6 -22 3 -12 -1 -26 -8 -30 -8 -5 -7 -8 5 -8 9 0 18 6 21 13 6 17
42 -5 41 -25 -1 -8 5 -15 12 -15 16 0 19 13 5 21 -4 3 -14 26 -21 51 -11 40
-35 77 -28 43z m2 -46 c3 -5 -1 -9 -9 -9 -8 0 -12 4 -9 9 3 4 7 8 9 8 2 0 6
-4 9 -8z"/>
<path d="M500 1060 c-7 -4 -20 -6 -28 -2 -10 3 -13 1 -8 -7 4 -6 15 -10 24 -9
13 2 19 -7 23 -37 l6 -40 2 42 c0 23 6 43 13 45 8 3 7 6 -3 10 -9 3 -22 2 -29
-2z"/>
<path d="M650 1050 c0 -6 7 -10 15 -10 8 0 15 2 15 4 0 2 -7 6 -15 10 -8 3
-15 1 -15 -4z"/>
<path d="M499 941 c11 -7 11 -9 0 -14 -8 -3 -1 -6 14 -6 16 -1 26 3 22 8 -3 5
5 12 17 14 13 2 3 5 -22 5 -29 1 -40 -1 -31 -7z"/>
<path d="M776 942 c-5 -9 20 -32 28 -25 3 4 6 10 6 14 0 10 -28 20 -34 11z"/>
<path d="M670 873 c0 -6 -8 -14 -17 -16 -10 -3 9 -5 41 -6 60 -1 75 7 20 11
-16 1 -32 7 -36 13 -5 6 -8 6 -8 -2z"/>
<path d="M398 853 c7 -3 16 -2 19 1 4 3 -2 6 -13 5 -11 0 -14 -3 -6 -6z"/>
<path d="M760 856 c0 -9 30 -14 35 -6 4 6 -3 10 -14 10 -12 0 -21 -2 -21 -4z"/>
<path d="M737 833 c-3 -4 5 -8 16 -9 12 -1 39 -3 60 -6 20 -3 37 -1 37 3 0 5
-15 9 -32 9 -18 0 -43 3 -54 6 -12 3 -24 2 -27 -3z"/>
<path d="M490 800 c-10 -6 -11 -10 -2 -10 26 0 12 -30 -15 -31 -25 -2 -25 -2
-5 -6 16 -3 25 -14 29 -36 5 -27 7 -28 14 -12 6 16 8 14 8 -12 1 -17 6 -35 12
-39 9 -5 9 4 3 32 -4 21 -9 57 -10 79 -1 42 -10 51 -34 35z"/>
<path d="M549 749 c14 -6 28 -6 33 -1 5 5 -5 9 -24 10 -31 0 -31 -1 -9 -9z"/>
<path d="M610 750 c0 -5 5 -10 11 -10 5 0 7 5 4 10 -3 6 -8 10 -11 10 -2 0 -4
-4 -4 -10z"/>
<path d="M648 748 c5 -5 16 -8 23 -6 8 3 3 7 -10 11 -17 4 -21 3 -13 -5z"/>
<path d="M502 635 c0 -16 2 -22 5 -12 2 9 2 23 0 30 -3 6 -5 -1 -5 -18z"/>
<path d="M472 630 c0 -14 2 -19 5 -12 2 6 2 18 0 25 -3 6 -5 1 -5 -13z"/>
<path d="M511 564 c0 -11 3 -14 6 -6 3 7 2 16 -1 19 -3 4 -6 -2 -5 -13z"/>
<path d="M450 500 c0 -5 5 -10 11 -10 5 0 7 5 4 10 -3 6 -8 10 -11 10 -2 0 -4
-4 -4 -10z"/>
<path d="M493 503 c-10 -3 -10 -10 -2 -24 5 -11 9 -58 8 -105 -1 -53 3 -90 10
-97 12 -12 13 -4 11 93 -1 55 5 64 13 20 3 -14 14 -62 26 -107 12 -45 21 -84
21 -87 0 -12 -32 -6 -68 13 -31 16 -40 17 -55 6 -22 -16 -4 -25 39 -18 24 4
26 2 11 -7 -11 -7 -53 -10 -110 -8 -79 2 -93 1 -92 -12 0 -9 4 -20 8 -27 4 -6
4 -18 1 -27 -4 -10 10 -31 40 -62 25 -25 46 -40 46 -32 0 9 3 9 8 2 4 -6 16
-10 27 -7 11 2 34 4 50 6 17 1 36 6 44 11 11 7 13 5 8 -6 -5 -13 -1 -15 21 -9
15 4 43 6 64 4 20 -2 39 1 43 6 3 6 12 11 18 11 7 0 6 -4 -3 -11 -12 -8 -10
-9 10 -7 14 2 28 8 32 13 5 6 8 5 8 -2 0 -8 15 -13 41 -13 24 0 38 4 34 10 -3
5 0 7 8 4 10 -3 18 13 31 58 12 42 14 64 7 66 -6 2 -9 8 -5 13 3 5 0 9 -6 9
-7 0 -9 7 -6 16 3 8 2 12 -3 9 -10 -6 -24 11 -28 34 -1 8 -5 17 -10 20 -4 3
-9 19 -10 35 -1 16 -7 34 -12 39 -13 13 -6 -57 8 -97 18 -45 14 -56 -18 -56
-23 0 -31 6 -42 32 -7 17 -12 48 -12 70 0 21 -3 41 -8 44 -5 3 -6 -3 -2 -12 4
-11 3 -15 -5 -11 -6 4 -13 21 -17 37 -4 17 -11 30 -16 30 -6 0 -7 5 -4 10 3 6
1 10 -4 10 -14 0 -14 -17 -1 -25 6 -4 8 -11 5 -16 -4 -5 -1 -9 5 -9 6 0 9 -4
5 -9 -3 -5 -1 -12 4 -15 5 -3 7 -15 4 -26 -3 -13 1 -26 11 -33 9 -7 17 -26 19
-42 2 -29 0 -30 -45 -33 l-47 -3 -7 38 c-5 21 -7 41 -6 46 1 4 -3 7 -8 7 -6 0
-10 9 -10 19 0 11 -5 23 -11 27 -7 4 -9 22 -5 48 3 22 2 48 -4 56 -9 13 -10
13 -10 0 0 -13 -1 -13 -10 0 -16 24 -12 30 19 30 l29 0 1 -77 c1 -43 5 -81 9
-85 4 -4 6 31 4 79 -3 67 -1 84 10 81 7 -3 14 -14 16 -26 2 -12 8 -22 13 -22
5 0 7 11 3 25 -5 19 -2 25 9 25 9 0 18 -4 21 -8 9 -15 65 -2 59 14 -3 10 1 12
19 7 41 -10 178 -18 196 -11 13 5 10 7 -10 7 -15 1 -30 6 -33 11 -3 6 -15 10
-26 10 -10 0 -19 -4 -19 -10 0 -5 -7 -10 -16 -10 -12 0 -14 3 -6 13 8 9 -6 12
-64 12 -41 0 -74 -3 -74 -7 0 -5 6 -8 13 -9 6 0 3 -4 -9 -9 -23 -9 -74 -2 -74
11 0 5 -5 9 -11 9 -5 0 -7 -4 -4 -10 3 -5 1 -10 -4 -10 -6 0 -11 7 -11 15 0 8
-4 15 -9 15 -15 0 -23 -18 -11 -23 6 -3 5 -4 -2 -3 -7 1 -15 13 -18 27 -4 15
-9 19 -13 12 -4 -6 -4 -18 -1 -27 3 -9 1 -16 -5 -16 -6 0 -16 11 -21 25 -5 14
-11 25 -12 24 -2 0 -9 -3 -15 -6z m404 -39 c-3 -3 -12 -4 -19 -1 -8 3 -5 6 6
6 11 1 17 -2 13 -5z m-340 -86 c-3 -8 -6 -5 -6 6 -1 11 2 17 5 13 3 -3 4 -12
1 -19z m-227 -218 c0 -5 -5 -10 -11 -10 -5 0 -7 5 -4 10 3 6 8 10 11 10 2 0 4
-4 4 -10z m70 0 c0 -5 -7 -10 -15 -10 -8 0 -15 5 -15 10 0 6 7 10 15 10 8 0
15 -4 15 -10z m90 0 c0 -5 -4 -10 -10 -10 -5 0 -10 5 -10 10 0 6 5 10 10 10 6
0 10 -4 10 -10z m104 -52 c-4 -6 1 -8 15 -3 11 3 21 3 21 -2 0 -5 -11 -10 -25
-11 -19 -1 -25 3 -25 19 0 11 5 17 10 14 6 -4 7 -11 4 -17z m-131 -35 c-7 -2
-21 -2 -30 0 -10 3 -4 5 12 5 17 0 24 -2 18 -5z"/>
<path d="M308 493 c6 -2 18 -2 25 0 6 3 1 5 -13 5 -14 0 -19 -2 -12 -5z"/>
<path d="M462 453 c15 -4 15 -8 -3 -49 -21 -51 -22 -54 -11 -54 11 0 44 88 37
100 -3 5 -14 9 -23 9 -16 -1 -16 -2 0 -6z"/>
<path d="M735 405 c4 -16 11 -34 16 -39 17 -18 15 -1 -3 34 -19 35 -19 35 -13
5z"/>
<path d="M491 244 c0 -11 3 -14 6 -6 3 7 2 16 -1 19 -3 4 -6 -2 -5 -13z"/>
<path d="M337 229 c7 -7 15 -10 18 -7 3 3 -2 9 -12 12 -14 6 -15 5 -6 -5z"/>
<path d="M375 230 c-3 -5 -1 -10 4 -10 6 0 11 5 11 10 0 6 -2 10 -4 10 -3 0
-8 -4 -11 -10z"/>
<path d="M630 204 c0 -9 7 -14 17 -12 25 5 28 28 4 28 -12 0 -21 -6 -21 -16z"/>
<path d="M311 206 c8 -8 119 -13 119 -6 0 4 -28 8 -62 9 -34 1 -60 -1 -57 -3z"/>
</g>
</svg>
